<svg width="59" height="53" viewBox="0 0 59 53" fill="none" xmlns="http://www.w3.org/2000/svg">
<path fill-rule="evenodd" clip-rule="evenodd" d="M10.9604 1.07997C12.9044 -0.378066 15.6624 0.0159237 17.1204 1.95997L27.2689 15.4913C31.2645 14.1355 35.5466 13.4002 40.0004 13.4002C44.4542 13.4002 48.7363 14.1355 52.7319 15.4913L62.8804 1.95997C64.3384 0.0159237 67.0963 -0.378066 69.0404 1.07997C70.9844 2.538 71.3784 5.29592 69.9204 7.23997L60.8535 19.3292C72.1068 26.3134 79.6004 38.7817 79.6004 53.0002H0.400391C0.400391 38.7817 7.894 26.3134 19.1473 19.3292L10.0804 7.23997C8.62236 5.29592 9.01635 2.538 10.9604 1.07997ZM53.5022 35.4002C55.9323 35.4002 57.9022 33.4303 57.9022 31.0002C57.9022 28.5702 55.9323 26.6002 53.5022 26.6002C51.0722 26.6002 49.1022 28.5702 49.1022 31.0002C49.1022 33.4303 51.0722 35.4002 53.5022 35.4002ZM31.5022 31.0002C31.5022 33.4303 29.5323 35.4002 27.1022 35.4002C24.6722 35.4002 22.7022 33.4303 22.7022 31.0002C22.7022 28.5702 24.6722 26.6002 27.1022 26.6002C29.5323 26.6002 31.5022 28.5702 31.5022 31.0002Z" fill="url(#paint0_linear_6373_75585)"/>
<defs>
<linearGradient id="paint0_linear_6373_75585" x1="40.0004" y1="0.199707" x2="40.0004" y2="53.0002" gradientUnits="userSpaceOnUse">
<stop stop-color="#ADECBF"/>
<stop offset="1" stop-color="#2ED786" stop-opacity="0.38"/>
</linearGradient>
</defs>
</svg>
