<svg xmlns="http://www.w3.org/2000/svg" width="63" height="67" fill="none"><g opacity=".2"><path fill="#fff" d="m25.285 47.565-.891 8.912c2.673 5.941 7.13 18.002 7.13 18.715 0 .713 16.04.297 24.062 0l10.694-15.15.891-3.565-2.673-10.695-10.695-15.15-2.673-14.26-10.695-4.456-6.238 7.13.891 11.586-2.674 6.238-7.13 10.695Z"/><path fill="#FFB300" d="M24.14 60.805c-1.529 2.292-3.82 2.292-5.348 4.584-1.485 1.527 0 3.82-.764 5.347-.764 1.528-.764 3.056.764 4.584 1.528 1.527 4.583 0 8.403 1.527 3.82 1.528 5.347 3.056 8.403 1.528 3.055-1.528 1.527-6.875-.764-9.167-2.292-2.291-2.292-4.583-4.584-8.403-2.291-3.82-4.583-2.291-6.11 0ZM53.93 66.153c.764-5.347.764-7.64 3.82-7.64.255 0 1.528.154 4.583.765 3.82.764 4.584.764 5.347 3.82.764 3.055 1.528.763 2.292 4.583.764 3.819-3.055 4.583-6.111 6.875-3.055 2.291-4.583 6.875-9.167 3.819-4.583-3.055-1.527-6.875-.764-12.222ZM43.236 23.375c-2.292 0-3.82.764-6.875 3.056-.51 0-1.527.458-1.527 2.291 0 2.292 5.346 6.111 7.638 6.111s9.167-5.347 9.167-6.875c0-1.527-6.111-4.583-8.403-4.583Z"/><path fill="#000" d="M70.22 65.539c-1.68-1.363-1.027-4.373-2.772-5.858 1.69-10.282-3.046-19.344-8.693-25.153-4.739-4.874-3.211-9.616-3.211-13.72 0-6.557-2.692-13.474-10.847-13.474-8.718 0-11.107 7.272-11.193 11.421-.208 9.967 2.014 12.559-3.82 19.812-6.862 8.535-7.873 17.047-6.324 21.563-.724.844-1.702 1.779-3.53 2.552-5.047 2.2-1.347 5.882-2.743 8.494a4.797 4.797 0 0 0-.587 2.261c0 2.292 1.821 4.275 5.13 3.979 4.464-.397 8.583 2.765 11.248 2.765 2.353 0 4.284-1.338 5.182-3.18 4.207-1.037 9.402-.905 13.606.18.755 2.11 2.802 3.486 5.079 3.486 4.983 0 5.943-5.65 11.66-7.563 2.06-.687 3.095-2.686 3.095-4.546 0-1.192-.425-2.326-1.28-3.02ZM42.27 33.562c-.974 0-1.78-.788-3.055-1.735-1.613-1.198-3.254-1.889-3.236-3.147 0-.865 1.158-1.13 2.656-2.081 1.607-1.018 2.233-2.05 3.816-2.05 1.62 0 2.108.818 4.308 1.769 2.163.938 3.67 1.304 3.67 2.362 0 1.084-2.264 1.86-3.538 2.652-1.873 1.155-2.836 2.23-4.62 2.23Zm5.088-15.934c2.695.43 2.998 5.167 1.708 7.498l-1.085-.443c.563-1.66.553-4.39-1.329-4.565-1.194-.11-1.965 1.467-2.13 2.817a5.153 5.153 0 0 0-1.597-.388c.189-2.82 2.01-5.307 4.433-4.92ZM36.96 18.639c2.066-.513 3.285 1.888 3.294 4.385l-.947.58c-.129-1.048-.596-2.74-1.77-2.38-1.255.391-1.05 3.31-.35 3.908l-.936.52c-1.283-2.16-1.28-6.518.709-7.013Zm-6.463 58.798c-5.998-2.728-8.036-2.108-9.181-2.108-2.375 0-3.15-1.77-2.258-3.444.757-1.42.522-2.909.336-4.103-.288-1.83-.34-2.427 1.46-3.215 2.49-1.057 3.597-2.417 4.422-3.434 2.316-2.863 4.653 1.64 6.569 5.652 1.244 2.6 3.691 3.918 4.446 6.799.694 2.661-2.17 5.503-5.793 3.853Zm21.35-5.726c-4.23 2.056-9.616 3-13.646.914-.596-1.72-1.55-2.833-2.576-3.951 1.647-.434 2.869-2.487 1.405-4.55-1.561-2.203-4.751-3.74-7.975-6.233-3.016-2.332-3.969-8.08.138-14.502-2.002 5.69-.831 10.933.174 12.433.208-3.019.446-8.06 4.571-14.101 2.08-3.05 2.111-7.077 2.157-9.595l1.895 1.296c1.393 1.03 2.56 2.163 4.235 2.163 2.475 0 3.844-1.424 5.75-2.606.746-.459 1.873-.923 2.82-1.568 1.59 7.566 8.171 16.665 8.54 21.847 1.532-3.153-.433-10.737-.433-10.737 2.573 3.927 2.777 7.2 2.89 11.214 1.8.736 3.731 2.655 3.909 5.182l-.749-.085c-.385-2.808-7.966-6.933-8.647-1.647-3.636.553-2.313 6.313-3.047 10.046-.336 1.709-.96 3.06-1.411 4.48Zm14.807-.125c-3.01 1.16-5.042 3.627-6.438 5.157-2.689 2.952-6.246 1.537-6.625-1.225-.4-2.951 1.1-4.562 1.748-7.865.59-3.016-.07-7.657 1.317-8.152.901 5.356 6.313 3.104 7.547 1.644 2.008 0 2.176.678 2.625 2.557.281 1.177.67 2.167 1.766 3.33 1.277 1.367.886 3.463-1.94 4.554Zm-24.445-39.74c-1.989 0-3.477-1.324-4.687-2.35-.62-.523.153-1.489.773-.963 1.183 1.002 2.374 2.062 3.914 2.062 1.855 0 3.49-1.585 5.705-2.46.755-.296 1.186.872.437 1.168-2.151.846-3.877 2.542-6.142 2.542Z"/></g></svg>