<svg xmlns="http://www.w3.org/2000/svg" xmlns:xlink="http://www.w3.org/1999/xlink" viewBox="0 0 1003 625"><defs><clipPath id="a"><path d="M.2,17.78A18.8,18.8,0,0,1,19-1H983a18.8,18.8,0,0,1,18.78,18.78V606.22A18.8,18.8,0,0,1,983,625H19A18.8,18.8,0,0,1,.2,606.22Z" style="fill:none;clip-rule:evenodd"/></clipPath><clipPath id="b"><path d="M704.45,208.71a9.39,9.39,0,0,0,9.38,9.39H851.57a9.39,9.39,0,0,0,0-18.78H713.83A9.38,9.38,0,0,0,704.45,208.71Zm-319.26,0a9.4,9.4,0,0,0,9.39,9.39H576.12a9.39,9.39,0,0,0,0-18.78H394.58A9.37,9.37,0,0,0,385.19,208.71Zm-319.26,0a9.4,9.4,0,0,0,9.41,9.39H169.2a9.39,9.39,0,1,0,0-18.78H75.34A9.4,9.4,0,0,0,65.93,208.71Zm610.35-12.52a25,25,0,0,1,25.06-25H932.92a25.07,25.07,0,0,1,25.06,25V521.71a25,25,0,0,1-25.06,25H701.34a25.07,25.07,0,0,1-25.06-25ZM357,196.2a25.06,25.06,0,0,1,25.06-25H613.66a25.06,25.06,0,0,1,25.06,25V421.54a25.06,25.06,0,0,1-25.06,25H382.08a25.06,25.06,0,0,1-25.06-25Zm-319.26,0a25.06,25.06,0,0,1,25.06-25.06H294.4a25.06,25.06,0,0,1,25.06,25.06V528a25.06,25.06,0,0,1-25.06,25H62.82a25.06,25.06,0,0,1-25.06-25Z" style="fill:none;clip-rule:evenodd"/></clipPath><clipPath id="c"><path d="M37.76,52.19a12.52,12.52,0,0,1,12.53-12.5H951.71a12.52,12.52,0,0,1,12.53,12.5V83.53A12.52,12.52,0,0,1,951.71,96H50.29a12.52,12.52,0,0,1-12.53-12.5Z" style="fill:none;clip-rule:evenodd"/></clipPath><clipPath id="d"><path d="M382.06,133.59a9.38,9.38,0,0,1,9.37-9.39h43.86a9.39,9.39,0,0,1,0,18.78H391.43A9.39,9.39,0,0,1,382.06,133.59Zm-219.1,0a9.38,9.38,0,0,1,9.38-9.39h169a9.39,9.39,0,0,1,0,18.78h-169A9.39,9.39,0,0,1,163,133.59Zm-125.2,0a9.4,9.4,0,0,1,9.39-9.39h75.12a9.39,9.39,0,0,1,0,18.78H47.15A9.39,9.39,0,0,1,37.76,133.59Z" style="fill:none;clip-rule:evenodd"/></clipPath><clipPath id="e"><path d="M704.45,462.21A12.52,12.52,0,0,1,717,449.72H917.29a12.49,12.49,0,0,1,12.52,12.49v50.14a12.52,12.52,0,0,1-12.52,12.49H717a12.49,12.49,0,0,1-12.52-12.49Zm0-103.29A12.52,12.52,0,0,1,717,346.43H917.29a12.49,12.49,0,0,1,12.52,12.49v50.14a12.52,12.52,0,0,1-12.52,12.49H717a12.49,12.49,0,0,1-12.52-12.49Zm0-103.29A12.52,12.52,0,0,1,717,243.14H917.29a12.49,12.49,0,0,1,12.52,12.49v50.14a12.52,12.52,0,0,1-12.52,12.49H717a12.49,12.49,0,0,1-12.52-12.49ZM385.19,358.92a12.52,12.52,0,0,1,12.52-12.49H598a12.49,12.49,0,0,1,12.52,12.49v50.14A12.52,12.52,0,0,1,598,421.55H397.71a12.49,12.49,0,0,1-12.52-12.49Zm0-103.29a12.52,12.52,0,0,1,12.52-12.49H598a12.49,12.49,0,0,1,12.52,12.49v50.14A12.52,12.52,0,0,1,598,318.26H397.71a12.49,12.49,0,0,1-12.52-12.49ZM65.93,462.21a12.52,12.52,0,0,1,12.52-12.49H278.77a12.49,12.49,0,0,1,12.52,12.49v50.14a12.52,12.52,0,0,1-12.52,12.49H78.45a12.49,12.49,0,0,1-12.52-12.49Zm0-103.29a12.52,12.52,0,0,1,12.52-12.49H278.77a12.49,12.49,0,0,1,12.52,12.49v50.14a12.52,12.52,0,0,1-12.52,12.49H78.45a12.49,12.49,0,0,1-12.52-12.49Zm0-103.29a12.52,12.52,0,0,1,12.52-12.49H278.77a12.49,12.49,0,0,1,12.52,12.49v50.14a12.52,12.52,0,0,1-12.52,12.49H78.45a12.49,12.49,0,0,1-12.52-12.49Z" style="fill:none;clip-rule:evenodd"/></clipPath><clipPath id="f"><path d="M266.25,83.52A18.78,18.78,0,0,1,285,64.73H717a18.76,18.76,0,0,1,18.77,18.79V546.74A18.78,18.78,0,0,1,717,565.53H285a18.76,18.76,0,0,1-18.77-18.79Z" style="fill:none;clip-rule:evenodd"/></clipPath><clipPath id="g"><circle cx="347.63" cy="474.76" r="37.56" style="fill:none"/></clipPath><clipPath id="h"><path d="M700.44,108.55,709,100a6,6,0,0,0-8.52-8.52L691.93,100l-8.51-8.52A6,6,0,0,0,674.9,100l8.52,8.51-8.52,8.51a6,6,0,0,0,8.52,8.52l8.51-8.52,8.51,8.52a6,6,0,0,0,8.52-8.52Z" style="fill:none;clip-rule:evenodd"/></clipPath><clipPath id="i"><path d="M303.81,108.54a9.37,9.37,0,0,1,9.39-9.38H494.74a9.39,9.39,0,0,1,9.39,9.38v18.8a9.37,9.37,0,0,1-9.39,9.38H313.2a9.39,9.39,0,0,1-9.39-9.38Z" style="fill:none;clip-rule:evenodd"/></clipPath><clipPath id="j"><path d="M303.81,171.15a9.4,9.4,0,0,1,9.36-9.39H688.83a9.39,9.39,0,0,1,0,18.78H313.17A9.38,9.38,0,0,1,303.81,171.15Z" style="fill:none;clip-rule:evenodd"/></clipPath><clipPath id="k"><path d="M303.81,202.45a9.4,9.4,0,0,1,9.38-9.39h375.6a9.39,9.39,0,0,1,0,18.78H313.17A9.38,9.38,0,0,1,303.81,202.45Z" style="fill:none;clip-rule:evenodd"/></clipPath><clipPath id="l"><path d="M407.1,449.72a9.41,9.41,0,0,1,9.4-9.39H688.79a9.39,9.39,0,1,1,0,18.78H416.5A9.4,9.4,0,0,1,407.1,449.72Z" style="fill:none;clip-rule:evenodd"/></clipPath><clipPath id="m"><path d="M303.81,296.34a9.4,9.4,0,0,1,9.36-9.38H688.83a9.36,9.36,0,0,1,9.36,9.38v81.4a9.4,9.4,0,0,1-9.36,9.38H313.17a9.36,9.36,0,0,1-9.36-9.38Z" style="fill:none;clip-rule:evenodd"/></clipPath><clipPath id="n"><path d="M407.1,481a9.38,9.38,0,0,1,9.4-9.39h241a9.39,9.39,0,1,1,0,18.78h-241A9.4,9.4,0,0,1,407.1,481Z" style="fill:none;clip-rule:evenodd"/></clipPath><clipPath id="o"><path d="M410.23,512.32a9.37,9.37,0,0,1,9.39-9.39H601.16a9.39,9.39,0,0,1,0,18.78H419.62A9.4,9.4,0,0,1,410.23,512.32Z" style="fill:none;clip-rule:evenodd"/></clipPath><clipPath id="p"><path d="M303.81,233.75a9.38,9.38,0,0,1,9.42-9.39h225.3a9.39,9.39,0,1,1,0,18.78H313.23A9.41,9.41,0,0,1,303.81,233.75Z" style="fill:none;clip-rule:evenodd"/></clipPath><clipPath id="q"><path d="M407.1,318.26a9.4,9.4,0,0,1,9.38-9.39H666.9a9.39,9.39,0,0,1,0,18.78H416.48A9.39,9.39,0,0,1,407.1,318.26Z" style="fill:none;clip-rule:evenodd"/></clipPath><clipPath id="r"><path d="M407.1,355.82a9.39,9.39,0,0,1,9.42-9.39h194a9.39,9.39,0,1,1,0,18.78h-194A9.41,9.41,0,0,1,407.1,355.82Z" style="fill:none;clip-rule:evenodd"/></clipPath><linearGradient id="s" x1="385.68" y1="252.8" x2="346.35" y2="275.4" gradientTransform="matrix(1, 0, 0, -1, 0, 624)" gradientUnits="userSpaceOnUse"><stop offset="0" stop-color="#fff" stop-opacity="0.4"/><stop offset="1" stop-color="#fff"/></linearGradient><linearGradient id="t" x1="-43.93" y1="2552.81" x2="-83.26" y2="2575.41" gradientTransform="matrix(-1, 0, 0, 1, 285.14, -2250.62)" xlink:href="#s"/></defs><title>Artboard 1</title><g style="clip-path:url(#a)"><rect y="-1" width="1002" height="626" style="fill:#00c7e6"/></g><g style="clip-path:url(#b)"><rect x="22.11" y="155.5" width="951.52" height="413.16" style="fill:#fff;opacity:0.300000011920929"/></g><g style="clip-path:url(#c)"><rect x="22.11" y="24.04" width="957.78" height="87.64" style="fill:#fff;opacity:0.300000011920929"/></g><g style="clip-path:url(#d)"><rect x="22.11" y="108.55" width="438.2" height="50.08" style="fill:#fff;opacity:0.300000011920929"/></g><g style="clip-path:url(#e)"><rect x="50.28" y="227.49" width="895.18" height="313" style="fill:#fff;opacity:0.300000011920929"/></g><g style="clip-path:url(#f)"><rect x="266" y="65.44" width="470" height="499.38" style="fill:#fff"/></g><g style="clip-path:url(#g)"><rect x="294.42" y="421.55" width="106.42" height="106.42" style="fill:#dfe1e6"/></g><g style="clip-path:url(#h)"><rect x="657.51" y="74.12" width="68.83" height="68.87" style="fill:#dfe1e6"/></g><g style="clip-path:url(#i)"><rect x="288.16" y="83.51" width="231.62" height="68.86" style="fill:#dfe1e6"/></g><g style="clip-path:url(#j)"><rect x="288.16" y="146.11" width="425.68" height="50.08" style="fill:#dfe1e6"/></g><g style="clip-path:url(#k)"><rect x="288.16" y="177.41" width="425.68" height="50.08" style="fill:#dfe1e6"/></g><g style="clip-path:url(#l)"><rect x="391.45" y="424.68" width="322.39" height="50.08" style="fill:#dfe1e6"/></g><g style="clip-path:url(#m)"><rect x="288.16" y="271.31" width="425.68" height="131.46" style="fill:#0065ff"/></g><g style="clip-path:url(#n)"><rect x="391.45" y="455.98" width="291.09" height="50.08" style="fill:#dfe1e6"/></g><g style="clip-path:url(#o)"><rect x="394.58" y="487.28" width="231.62" height="50.08" style="fill:#dfe1e6"/></g><g style="clip-path:url(#p)"><rect x="288.16" y="208.71" width="275.44" height="50.08" style="fill:#dfe1e6"/></g><g style="clip-path:url(#q)"><rect x="391.45" y="293.22" width="300.48" height="50.08" style="fill:#fff;opacity:0.5"/></g><g style="clip-path:url(#r)"><rect x="391.45" y="330.78" width="244.14" height="50.08" style="fill:#fff;opacity:0.5"/></g><path d="M328.23,353.07c-.65,1.06-1.38,2.29-2,3.27a2,2,0,0,0,.67,2.72l13,8a2,2,0,0,0,2.75-.65l0,0c.52-.87,1.19-2,1.92-3.21,5.15-8.5,10.33-7.46,19.67-3l12.89,6.13a2,2,0,0,0,2.67-.95l0-.05,6.19-14a2,2,0,0,0-1-2.62c-2.72-1.28-8.13-3.83-13-6.18C354.51,334,339.62,334.56,328.23,353.07Z" style="fill:url(#s)"/><path d="M386.52,320.31c.65-1.06,1.38-2.29,2-3.27a2,2,0,0,0-.67-2.72l-13-8a2,2,0,0,0-2.77.56.83.83,0,0,0-.08.12c-.52.87-1.19,2-1.92,3.21-5.15,8.5-10.33,7.46-19.67,3l-12.85-6.12a2,2,0,0,0-2.67,1l0,0-6.19,14a2,2,0,0,0,1,2.62c2.72,1.28,8.13,3.83,13,6.18C360.24,339.38,375.13,338.82,386.52,320.31Z" style="fill:url(#t)"/></svg>