<svg width="63" height="67" viewBox="0 0 63 67" fill="none" xmlns="http://www.w3.org/2000/svg">
<g opacity="0.1">
<path d="M73.8218 63.6804C72.6698 66.3298 71.3061 68.7686 69.7262 71.0108C67.5726 74.0674 65.8092 76.1832 64.4503 77.3581C62.3437 79.2867 60.0866 80.2743 57.6697 80.3305C55.9345 80.3305 53.842 79.839 51.4063 78.842C48.9625 77.8496 46.7168 77.3581 44.6633 77.3581C42.5097 77.3581 40.1999 77.8496 37.7294 78.842C35.2551 79.839 33.2618 80.3586 31.7378 80.4101C29.4201 80.5084 27.1098 79.4926 24.8039 77.3581C23.3321 76.0802 21.4912 73.8895 19.2858 70.7861C16.9196 67.472 14.9743 63.629 13.4503 59.2476C11.8182 54.5152 11 49.9326 11 45.496C11 40.4139 12.1031 36.0307 14.3127 32.3575C16.0493 29.4072 18.3595 27.0798 21.2509 25.3713C24.1423 23.6627 27.2664 22.7921 30.6309 22.7364C32.4718 22.7364 34.8859 23.3032 37.886 24.4173C40.8775 25.5351 42.7984 26.102 43.6406 26.102C44.2702 26.102 46.4041 25.4391 50.0215 24.1177C53.4424 22.8922 56.3295 22.3848 58.6947 22.5847C65.1039 23.0996 69.919 25.6147 73.1212 30.1458C67.3892 33.6031 64.5537 38.4456 64.6102 44.6576C64.6619 49.4963 66.4252 53.5228 69.8908 56.7199C71.4613 58.2038 73.2152 59.3506 75.1667 60.1651C74.7435 61.3868 74.2968 62.557 73.8218 63.6804ZM59.1227 6.10035C59.1227 9.89288 57.7308 13.434 54.9565 16.7115C51.6085 20.608 47.5589 22.8595 43.1675 22.5042C43.1115 22.0492 43.0791 21.5703 43.0791 21.0672C43.0791 17.4263 44.6713 13.5299 47.4987 10.3441C48.9103 8.73103 50.7057 7.38981 52.8828 6.31988C55.0552 5.26593 57.1101 4.68306 59.0427 4.58325C59.0991 5.09025 59.1227 5.59729 59.1227 6.1003V6.10035Z" fill="#093577"/>
</g>
</svg>
