<svg width="40" height="40" viewBox="0 0 40 40" fill="none" xmlns="http://www.w3.org/2000/svg">
<path d="M0 5C0 2.23858 2.23858 0 5 0H35C37.7614 0 40 2.23858 40 5V35C40 37.7614 37.7614 40 35 40H5C2.23858 40 0 37.7614 0 35V5Z" fill="#1D70F5"/>
<path d="M0 33.332H40V34.9987C40 37.7601 37.7614 39.9987 35 39.9987H5C2.23858 39.9987 0 37.7601 0 34.9987V33.332Z" fill="#0059E8"/>
<path d="M33.333 0H34.9997C37.7611 0 39.9997 2.23858 39.9997 5V35C39.9997 37.7614 37.7611 40 34.9997 40H33.333V0Z" fill="#3C87FF"/>
<path d="M33.333 39.9987H34.9997C37.7611 39.9987 39.9997 37.7601 39.9997 34.9987V33.332H33.333V39.9987Z" fill="#1D70F5"/>
<path d="M10.6051 24.9987L6.66699 8.33203H9.82726L12.64 21.5686L15.2624 9.0045H18.1025L21.004 21.6722L23.5155 8.33203H26.667L23.0862 24.9987H19.1295L16.7553 14.8991L14.5296 24.9987H10.6051Z" fill="white"/>
</svg>
