<svg width="32" height="32" viewBox="0 0 32 32" fill="none" xmlns="http://www.w3.org/2000/svg">
<path d="M17.1999 27.0999C17.1999 28.4253 16.1254 29.4999 14.7999 29.4999H4.39999C3.07451 29.4999 2 28.4253 2 27.0999V23.4999C2 20.22 4.07764 17.4865 6.98862 16.4482M29.9998 23.4999C29.9998 19.5235 26.7762 16.3002 22.7999 16.2999M7.48164 2.49155C8.12056 2.17681 8.83964 2 9.60002 2C12.251 2 14.4 4.14902 14.4 6.79998C14.4 7.59291 14.2077 8.34093 13.8673 8.99997M2 3.99999L27.9999 29.9999M26.3998 7.59998C26.3998 9.58819 24.7881 11.2 22.7999 11.2C20.8116 11.2 19.1999 9.58819 19.1999 7.59998C19.1999 5.61176 20.8116 3.99999 22.7999 3.99999C24.7881 3.99999 26.3998 5.61176 26.3998 7.59998Z" stroke="#333333" stroke-width="2.99999" stroke-linecap="round" stroke-linejoin="round"/>
</svg>
