<svg width="25" height="24" viewBox="0 0 25 24" fill="none" xmlns="http://www.w3.org/2000/svg">
	<path fill-rule="evenodd" clip-rule="evenodd" d="M15.1893 9.28214C15.7751 8.69636 16.7249 8.69636 17.3107 9.28214C17.8964 9.86793 17.8964 10.8177 17.3107 11.4035L13.1963 15.5179C12.6046 16.1095 11.6454 16.1095 11.0537 15.5179L8.43934 12.9035C7.85355 12.3177 7.85355 11.3679 8.43934 10.7821C9.02513 10.1964 9.97487 10.1964 10.5607 10.7821L12.125 12.3465L15.1893 9.28214Z" fill="#A9DE92"/>
	<path fill-rule="evenodd" clip-rule="evenodd" d="M20 5.87618C18.7268 5.74042 17.137 5.48629 15.8159 4.98782C14.6509 4.54825 13.4152 3.81243 12.5 3.21554C11.5848 3.81243 10.3491 4.54825 9.18408 4.98782C7.863 5.48629 6.27315 5.74042 5 5.87618V13.5783C5 15.0169 5.57112 16.3962 6.58703 17.4129C7.57903 18.4056 8.7511 19.1997 10.0403 19.7526L12.5 20.8075L14.9597 19.7526C16.2489 19.1997 17.421 18.4056 18.413 17.4129C19.4289 16.3962 20 15.0169 20 13.5783V5.87618ZM3.73734 2.97776C2.77744 3.04872 2 3.83448 2 4.79769V13.5783C2 15.8119 2.88666 17.954 4.46494 19.5334C5.72672 20.7961 7.21768 21.8063 8.85783 22.5097L12.1772 23.9333C12.3833 24.0217 12.6167 24.0217 12.8228 23.9333L16.1422 22.5097C17.7823 21.8063 19.2733 20.7961 20.5351 19.5334C22.1133 17.954 23 15.8119 23 13.5783V4.79769C23 3.83448 22.2226 3.04872 21.2627 2.97776C19.9472 2.88051 18.1544 2.66372 16.875 2.18098C15.791 1.77196 14.4885 0.950513 13.5881 0.334512C12.9354 -0.111992 12.0646 -0.111992 11.4119 0.334512C10.5115 0.950513 9.209 1.77196 8.125 2.18098C6.8456 2.66372 5.05279 2.88051 3.73734 2.97776Z" fill="#A9DE92"/>
</svg>
