<?xml version="1.0" encoding="UTF-8"?>
<svg width="24px" height="24px" viewBox="0 0 24 24" version="1.1" xmlns="http://www.w3.org/2000/svg" xmlns:xlink="http://www.w3.org/1999/xlink">
    <title>右箭头</title>
    <defs>
        <filter color-interpolation-filters="auto" id="filter-1">
            <feColorMatrix in="SourceGraphic" type="matrix" values="0 0 0 0 0.090196 0 0 0 0 0.360784 0 0 0 0 0.901961 0 0 0 1.000000 0"></feColorMatrix>
        </filter>
    </defs>
    <g id="web端" stroke="none" stroke-width="1" fill="none" fill-rule="evenodd">
        <g id="首页" transform="translate(-1312.000000, -452.000000)">
            <g id="编组-17" transform="translate(512.000000, 280.000000)">
                <g id="右箭头" transform="translate(48.000000, 152.000000)" filter="url(#filter-1)">
                    <g transform="translate(752.000000, 20.000000)">
                        <rect id="矩形" x="0" y="0" width="24" height="24"></rect>
                        <path d="M14.5343055,4.08859116 L14.6035534,4.14644661 L22.1035534,11.6464466 L22.1154113,11.6587136 C22.1270608,11.6711813 22.1380797,11.6842458 22.1484173,11.6978561 L22.1035534,11.6464466 C22.1303877,11.6732809 22.1535342,11.7024064 22.172993,11.7331935 C22.1799807,11.7443175 22.1867067,11.7559533 22.1929657,11.7678728 C22.2002504,11.7817243 22.2066485,11.7954611 22.2123894,11.8094049 C22.2175915,11.8219749 22.2224419,11.8352631 22.2267316,11.8488008 C22.231552,11.8641653 22.2356039,11.8795257 22.2389143,11.8950129 C22.2412332,11.905629 22.2432062,11.9166163 22.2448142,11.9277219 C22.2473429,11.945461 22.2489382,11.9629328 22.2496194,11.9804335 C22.2498635,11.9863952 22.25,11.9931817 22.25,12 L22.2495793,12.0205695 C22.248877,12.0377348 22.2472949,12.0548708 22.2448333,12.0719041 L22.25,12 C22.25,12.036097 22.2461748,12.0713007 22.2389078,12.1052277 C22.2356039,12.1204743 22.231552,12.1358347 22.2267587,12.1510116 C22.2224419,12.1647369 22.2175915,12.1780251 22.2122078,12.1910366 C22.2066485,12.2045389 22.2002504,12.2182757 22.193195,12.2317582 C22.1867067,12.2440467 22.1799807,12.2556825 22.172812,12.2670103 C22.1692668,12.2727019 22.1654054,12.2785364 22.1614088,12.2843055 L22.1484173,12.3021439 C22.1380797,12.3157542 22.1270608,12.3288187 22.1154113,12.3412864 L22.1035534,12.3535534 L14.6035534,19.8535534 C14.4082912,20.0488155 14.0917088,20.0488155 13.8964466,19.8535534 C13.7228803,19.679987 13.7035951,19.4105626 13.8385912,19.2156945 L13.8964466,19.1464466 L20.543,12.5 L2.25,12.5 C1.97385763,12.5 1.75,12.2761424 1.75,12 C1.75,11.7545401 1.92687516,11.5503916 2.16012437,11.5080557 L2.25,11.5 L20.543,11.5 L13.8964466,4.85355339 C13.7228803,4.67998704 13.7035951,4.41056264 13.8385912,4.2156945 L13.8964466,4.14644661 C14.070013,3.97288026 14.3394374,3.95359511 14.5343055,4.08859116 Z" id="形状结合" fill="#FFFFFF" fill-rule="nonzero"></path>
                    </g>
                </g>
            </g>
        </g>
    </g>
</svg>